<?xml version="1.0" standalone="no"?>
<!DOCTYPE svg PUBLIC "-//W3C//DTD SVG 20010904//EN"
 "http://www.w3.org/TR/2001/REC-SVG-20010904/DTD/svg10.dtd">
<svg version="1.0" xmlns="http://www.w3.org/2000/svg"
 width="168.000000pt" height="138.000000pt" viewBox="0 0 168.000000 138.000000"
 preserveAspectRatio="xMidYMid meet">

<g transform="translate(0.000000,138.000000) scale(0.100000,-0.100000)"
fill="#000000" stroke="none">
<path d="M0 690 l0 -690 840 0 840 0 0 690 0 690 -840 0 -840 0 0 -690z m855
624 c101 -11 99 -19 -3 -20 -59 0 -123 -8 -162 -18 -85 -23 -207 -88 -261
-140 -41 -40 -42 -40 -24 -9 10 18 22 30 27 27 4 -3 8 1 8 9 0 8 25 32 55 52
31 20 53 40 50 45 -3 4 3 6 14 3 10 -3 22 0 25 6 4 7 1 8 -8 5 -9 -3 -16 -4
-16 -1 0 12 133 49 155 43 15 -4 25 -2 25 5 0 6 11 8 28 5 15 -3 54 -8 87 -12z
m365 -128 c0 4 20 -10 44 -29 24 -20 46 -34 48 -31 3 2 11 -4 19 -13 13 -17
13 -17 -5 -3 -18 14 -18 14 -6 -7 8 -12 17 -20 21 -17 22 13 103 -153 125
-257 12 -56 14 -85 6 -119 -6 -25 -16 -73 -23 -108 -14 -73 -29 -94 -18 -24
34 205 -32 403 -185 557 -43 44 -67 72 -53 62 15 -10 27 -15 27 -11z m-863
-121 c0 -8 -4 -12 -9 -9 -5 3 -6 10 -3 15 9 13 12 11 12 -6z m310 -151 c-3 -3
-12 -4 -19 -1 -8 3 -5 6 6 6 11 1 17 -2 13 -5z m527 -16 c-5 -8 -1 -9 12 -5
17 6 17 6 3 -5 -9 -7 -14 -18 -12 -23 5 -16 -86 -106 -100 -99 -7 4 -9 4 -5 0
8 -10 -23 -47 -34 -40 -4 3 -8 -1 -8 -8 0 -10 -3 -9 -11 2 -9 12 -10 11 -6 -7
3 -12 1 -23 -4 -25 -4 -2 -11 -18 -14 -37 -6 -37 -35 -75 -35 -46 0 9 -4 13
-10 10 -5 -3 -10 -17 -10 -31 0 -16 -8 -28 -22 -34 l-23 -9 23 0 c20 -1 21 -4
12 -21 -6 -11 -16 -20 -23 -20 -7 0 -6 4 3 10 14 9 7 15 -14 11 -21 -4 -26 33
-26 203 l0 178 23 -14 c12 -8 27 -25 34 -38 14 -29 32 -40 51 -32 10 3 13 1 8
-6 -4 -7 -2 -12 3 -12 6 0 11 -10 11 -23 0 -14 6 -24 15 -24 8 0 12 4 10 8 -7
10 125 149 142 149 8 0 11 -5 7 -12z m-933 -40 c-7 -18 -15 -72 -18 -119 -13
-192 70 -386 219 -510 32 -27 55 -49 50 -49 -5 0 -15 7 -22 15 -7 9 -19 14
-27 11 -8 -3 -11 -2 -8 3 8 14 -9 21 -25 11 -16 -10 -50 14 -50 34 0 6 9 0 20
-14 11 -14 20 -20 20 -14 0 15 -29 39 -48 39 -24 0 -115 142 -141 220 -17 51
-25 100 -28 180 -3 67 -1 105 5 97 6 -9 13 6 21 45 14 62 29 98 38 89 3 -3 0
-20 -6 -38z m265 10 c4 -13 6 -58 5 -102 l-3 -79 51 5 c64 6 81 21 81 67 0 40
-14 61 -42 61 -16 0 -19 6 -18 38 0 4 13 10 28 15 23 6 32 2 60 -30 30 -34 43
-61 23 -48 -5 3 -13 0 -17 -6 -4 -7 -3 -9 2 -6 21 13 35 -12 36 -64 1 -31 -2
-61 -7 -69 -5 -9 -4 -11 3 -6 7 4 12 3 12 -3 0 -21 -51 -43 -110 -48 -54 -5
-60 -4 -54 11 4 10 -1 25 -12 37 -17 19 -19 19 -25 2 -4 -10 -8 -36 -8 -59 -1
-49 -34 -97 -45 -67 -6 15 -8 15 -16 3 -7 -11 -10 -4 -10 25 0 45 -8 60 -30
60 -8 0 -18 -4 -22 -10 -4 -5 -8 43 -8 108 0 109 1 118 18 115 21 -3 52 18 52
36 0 16 21 36 36 36 7 0 16 -10 20 -22z m657 -103 c-15 -19 -29 -32 -32 -29
-4 4 48 64 56 64 2 0 -9 -16 -24 -35z m5 -70 c-3 -3 5 -18 19 -34 13 -15 35
-46 49 -68 19 -33 21 -42 9 -46 -10 -4 -12 -1 -8 11 5 14 3 14 -9 -2 -8 -10
-13 -34 -11 -53 2 -33 1 -35 -25 -28 -37 9 -67 39 -104 103 l-30 53 23 25 c16
17 26 21 35 13 9 -7 18 -7 31 0 10 6 14 11 10 11 -9 0 1 20 10 20 4 0 4 -2 1
-5z m97 -416 c-11 -16 -96 -93 -109 -98 -6 -2 -24 -14 -41 -26 -63 -46 -131
-66 -238 -70 l-102 -4 85 13 c166 26 261 66 350 146 57 51 66 57 55 39z m-160
-159 c-3 -5 -11 -10 -16 -10 -6 0 -7 5 -4 10 3 6 11 10 16 10 6 0 7 -4 4 -10z
m-336 -26 c8 -7 -64 -2 -89 6 -16 6 -6 7 30 3 30 -3 57 -7 59 -9z m275 1 c-17
-8 -44 -16 -60 -20 -16 -3 -6 4 21 14 57 22 86 26 39 6z"/>
<path d="M1162 880 c-10 -16 -9 -18 5 -13 13 5 15 2 10 -11 -4 -10 -3 -15 3
-11 9 6 9 40 -1 49 -3 3 -10 -4 -17 -14z"/>
<path d="M495 539 c-4 -6 -5 -12 -2 -15 2 -3 7 2 10 11 7 17 1 20 -8 4z"/>
</g>
</svg>
